<?xml version="1.0" encoding="UTF-8" standalone="no"?>
<!-- Created with Inkscape (http://www.inkscape.org/) -->

<svg
   width="200"
   height="79.999992"
   viewBox="0 0 52.916665 21.166665"
   version="1.1"
   id="svg1"
   xmlns="http://www.w3.org/2000/svg"
   xmlns:svg="http://www.w3.org/2000/svg">
  <defs
     id="defs1" />
  <g
     id="layer1">
    <path
       style="fill:#ffed34;fill-opacity:1;stroke-width:0.529167;stroke-linecap:round"
       d="M 4.2333332,2.1166665 H 25.399999 c 2.338005,0 5.982866,0.7289722 8.141025,1.628205 l 17.584615,7.3269225 c 2.158159,0.899233 2.158159,2.357177 0,3.25641 l -17.584615,7.326923 c -2.158159,0.899233 -5.80302,1.628205 -8.141025,1.628205 l -21.1666658,0 C 1.8953278,23.283332 0,21.388004 0,19.049999 V 6.3499997 C 0,4.0119943 1.8953278,2.1166665 4.2333332,2.1166665 Z"
       id="path1"
       transform="translate(0,-2.1166667)" />
    <path
       style="fill:#fff69c;fill-opacity:1;stroke-width:0.529167;stroke-linecap:round"
       d="m 3.1749999,9.5249995 0,6.3499995 c 0,2.338005 1.8953278,4.233333 4.2333332,4.233333 l 11.6416659,0 c 2.338005,0 5.870477,-0.955001 7.889997,-2.133054 l 5.386672,-3.142225 c 2.01952,-1.178053 2.01952,-3.088055 0,-4.266108 L 26.939996,7.4247201 C 24.920476,6.246667 21.388004,5.2916663 19.049999,5.2916663 H 7.4083331 c -2.3380054,0 -4.2333332,1.8953278 -4.2333332,4.2333332 z"
       id="path2"
       transform="translate(0,-2.1166667)" />
  </g>
</svg>
