<?xml version="1.0" encoding="UTF-8" standalone="no"?>
<!-- Created with Inkscape (http://www.inkscape.org/) -->

<svg
   id="svg5"
   version="1.1"
   viewBox="0 0 17.276871 17.276871"
   height="58.387669"
   width="58.387669"
   xmlns="http://www.w3.org/2000/svg"
   xmlns:svg="http://www.w3.org/2000/svg">
  <defs
     id="defs2" />
  <g
     id="layer3"
     transform="translate(-39.694252,-17.044859)">
    <g
       transform="matrix(-0.07991428,0.24885916,-0.24885916,-0.07991428,47.112722,26.060681)"
       id="g18290"
       style="fill:#2f3f55;fill-opacity:1;stroke:none;stroke-width:3.82591">
      <path
         style="fill:#2f3f55;fill-opacity:1;stroke:none;stroke-width:3.82591"
         d="m 20.861633,-7.1610644 4.3012,-0.57413 0.4382,-0.00663 4.9526,1.62155 v 4.2355 l -4.9526,1.62155001 -0.4382,-0.00663 -4.3012,-0.57413 -1.591,5.93776999 4.012,1.65339 0.3828,0.2134 3.4783,3.8806004 -2.1178,3.668 -5.0998,-1.072 -0.3761,-0.2248 -3.438,-2.6478 -4.3467,4.3467 2.6478,3.438 0.2248,0.3761 1.072,5.0998 -3.668,2.1178 -3.8806001,-3.4783 -0.2134,-0.3828 -1.65339,-4.012 -5.93776997,1.591 0.57413,4.3012 0.00663,0.4382 -1.62155,4.9526 H -4.9195171 l -1.62155,-4.9526 0.00663,-0.4382 0.57413,-4.3012 -5.9377699,-1.591 -1.65339,4.012 -0.2134,0.3828 -3.8806,3.4783 -3.668,-2.1178 1.072,-5.0998 0.2248,-0.3761 2.6478,-3.438 -4.3467,-4.3467 -3.438,2.6478 -0.3761,0.2248 -5.0998,1.072 -2.1178,-3.668 3.4783,-3.8806004 0.3828,-0.2134 4.012,-1.65339 -1.591,-5.93776999 -4.3012,0.57413 -0.4382,0.00663 -4.9526,-1.62155001 v -4.2355 l 4.9526,-1.62155 0.4382,0.00663 4.3012,0.57413 1.591,-5.9377696 -4.012,-1.65339 -0.3828,-0.2134 -3.4783,-3.8806 2.1178,-3.668 5.0998,1.072 0.3761,0.2248 3.438,2.6478 4.3467,-4.3467 -2.6478,-3.438 -0.2248,-0.3761 -1.072,-5.0998 3.668,-2.1178 3.8806,3.4783 0.2134,0.3828 1.65339,4.012 5.9377699,-1.591 -0.57413,-4.3012 -0.00663,-0.4382 1.62155,-4.9526 h 4.23550003 l 1.62155,4.9526 -0.00663,0.4382 -0.57413,4.3012 5.93776997,1.591 1.65339,-4.012 0.2134,-0.3828 3.8806001,-3.4783 3.668,2.1178 -1.072,5.0998 -0.2248,0.3761 -2.6478,3.438 4.3467,4.3467 3.438,-2.6478 0.3761,-0.2248 5.0998,-1.072 2.1178,3.668 -3.4783,3.8806 -0.3828,0.2134 -4.012,1.65339 z"
         id="path18286" />
    </g>
  </g>
</svg>
