<?xml version="1.0" encoding="UTF-8" standalone="no"?>
<!-- Created with Inkscape (http://www.inkscape.org/) -->

<svg
   id="svg5"
   version="1.1"
   viewBox="0 0 8.1903123 8.4596354"
   height="28.589575"
   width="27.67939"
   xmlns="http://www.w3.org/2000/svg"
   xmlns:svg="http://www.w3.org/2000/svg">
  <defs
     id="defs2" />
  <g
     id="layer8"
     transform="translate(-54.358507,-24.802714)">
    <g
       transform="matrix(0.20828375,-0.07724109,0.07724106,0.20828375,58.453663,29.032532)"
       id="g24489"
       style="fill:#597eb4;fill-opacity:1;stroke:none;stroke-width:7.0572">
      <path
         style="fill:#4e84c2;fill-opacity:1;stroke:none;stroke-width:4.50157"
         d="m 9.21946,-2.48808 4.39964,-1.18735 0.2168,-0.03188 5.1842,1.97794 V 1.72937 L 13.8359,3.70731 13.6191,3.67543 9.21946,2.48808 6.76448,6.74025 9.99256,9.95677 10.1286,10.1286 11.0077,15.6072 8.01239,17.3366 3.70731,13.8359 3.62654,13.6322 2.45499,9.22833 h -4.90998 l -1.17155,4.40387 -0.08077,0.2037 -4.30508,3.5007 -2.99531,-1.7294 0.8791,-5.4786 0.13604,-0.17183 3.22808,-3.21652 -2.45498,-4.25217 -4.39964,1.18735 -0.2168,0.03188 -5.1842,-1.97794 v -3.45874 l 5.1842,-1.97794 0.2168,0.03188 4.39964,1.18735 2.45498,-4.25217 -3.22808,-3.21652 -0.13604,-0.17183 -0.8791,-5.4786 2.99531,-1.7294 4.30508,3.5007 0.08077,0.2037 1.17155,4.40387 h 4.90998 l 1.17155,-4.40387 0.08077,-0.2037 4.30508,-3.5007 2.99531,1.7294 -0.8791,5.4786 -0.13604,0.17183 -3.22808,3.21652 z"
         id="path24485" />
      <circle
         style="fill:#2b3f59;fill-opacity:1;stroke:none;stroke-width:4.50157"
         id="path24487"
         cx="0"
         cy="0"
         r="5.5019836" />
    </g>
  </g>
</svg>
