<?xml version="1.0" encoding="UTF-8" standalone="no"?>
<!-- Created with Inkscape (http://www.inkscape.org/) -->

<svg
   id="svg5"
   version="1.1"
   viewBox="0 0 12.840722 12.493732"
   height="42.222916"
   width="43.39558"
   xmlns="http://www.w3.org/2000/svg"
   xmlns:svg="http://www.w3.org/2000/svg">
  <defs
     id="defs2" />
  <g
     id="layer7"
     transform="matrix(0.637247,0,0,0.638492,-28.821708,-3.9383994)"
     style="stroke-width:1.56772">
    <g
       transform="matrix(0.3525727,0,0,0.3518852,55.303624,15.952064)"
       id="g24271"
       style="fill:#6287ba;fill-opacity:1;stroke:none;stroke-width:6.97769">
      <path
         style="fill:#4e84c2;fill-opacity:1;stroke:none;stroke-width:4.45085"
         d="m 18.8581,-3.02152 4.3564,-0.69799 0.3648,-0.01509 4.9968,1.70726 V 2.02734 L 23.5793,3.7346 23.2145,3.71951 18.8581,3.02152 l -1.8256,5.61852 3.9347,1.99596 0.304,0.2022 3.039,4.3182 -2.3833,3.2803 -5.046,-1.5558 -0.2863,-0.2266 -3.1141,-3.1253 -4.7794,3.4724 2.01,3.9275 0.1271,0.3423 L 10.7586,26.551 6.90237,27.8039 3.7346,23.5793 3.63619,23.2277 2.95383,18.8688 h -5.90766 l -0.68236,4.3589 -0.09841,0.3516 -3.16777,4.2246 -3.85623,-1.2529 -0.0796,-5.2798 0.1271,-0.3423 2.01,-3.9275 -4.7794,-3.4724 -3.1141,3.1253 -0.2863,0.2266 -5.046,1.5558 -2.3833,-3.2803 3.039,-4.3182 0.304,-0.2022 3.9347,-1.99596 -1.8256,-5.61852 -4.3564,0.69799 -0.3648,0.01509 -4.9968,-1.70726 v -4.05468 l 4.9968,-1.70726 0.3648,0.01509 4.3564,0.69799 1.8256,-5.61852 -3.9347,-1.99596 -0.304,-0.2022 -3.039,-4.3182 2.3833,-3.2803 5.046,1.5558 0.2863,0.2266 3.1141,3.1253 4.7794,-3.4724 -2.01,-3.9275 -0.1271,-0.3423 0.0796,-5.2798 3.85623,-1.2529 3.16777,4.2246 0.09841,0.3516 0.68236,4.3589 h 5.90766 l 0.68236,-4.3589 0.09841,-0.3516 3.16777,-4.2246 3.85623,1.2529 0.0796,5.2798 -0.1271,0.3423 -2.01,3.9275 4.7794,3.4724 3.1141,-3.1253 0.2863,-0.2266 5.046,-1.5558 2.3833,3.2803 -3.039,4.3182 -0.304,0.2022 -3.9347,1.99596 z"
         id="path24267" />
      <circle
         style="fill:#2b3f59;fill-opacity:1;stroke:none;stroke-width:4.45085"
         id="path24269"
         cy="0"
         cx="0"
         r="8.0244923" />
    </g>
  </g>
</svg>
