<?xml version="1.0" encoding="UTF-8" standalone="no"?>
<!-- Created with Inkscape (http://www.inkscape.org/) -->

<svg
   width="192.00002"
   height="192.00002"
   viewBox="0 0 56.812672 56.812672"
   version="1.1"
   id="svg5"
   xmlns="http://www.w3.org/2000/svg"
   xmlns:svg="http://www.w3.org/2000/svg">
  <defs
     id="defs2" />
  <g
     id="layer2"
     transform="translate(-9.4687748,-9.4687757)">
    <rect
       style="fill:#44464f;fill-opacity:1;stroke-width:0.591612;stroke-linecap:round;stroke-linejoin:round"
       id="rect6"
       width="56.812672"
       height="56.812672"
       x="9.4687748"
       y="9.4687757"
       rx="1.1835972"
       ry="1.1835972" />
    <rect
       style="fill:#acac51;stroke-width:2.36719;stroke-linecap:round;stroke-linejoin:round"
       id="rect8919"
       width="2.3671944"
       height="28.406334"
       x="20.121153"
       y="23.671944"
       rx="1.5814449"
       ry="1.5814446" />
    <rect
       style="fill:#acac51;stroke-width:2.36719;stroke-linecap:round;stroke-linejoin:round"
       id="rect8917"
       width="2.3671944"
       height="28.406334"
       x="15.386764"
       y="23.671944"
       rx="1.5814449"
       ry="1.5814446" />
    <rect
       style="fill:#ddd66c;fill-opacity:1;stroke-width:0.790473;stroke-linecap:round;stroke-linejoin:round"
       id="rect1016"
       width="15.386762"
       height="11.835973"
       x="11.835973"
       y="14.203167"
       rx="1.5814449"
       ry="1.5814446" />
    <path
       style="fill:#525223;fill-opacity:1;stroke:#eded7d;stroke-width:2.36719;stroke-linecap:round;stroke-linejoin:round;stroke-opacity:1"
       id="path1018"
       d="m 34.324319,20.121161 a 4.7343836,4.734375 0 0 1 -4.680308,4.734066 4.7343836,4.734375 0 0 1 -4.787224,-4.625922 4.7343836,4.734375 0 0 1 4.570948,-4.83974 4.7343836,4.734375 0 0 1 4.891643,4.515362" />
    <rect
       style="fill:#ddd66c;fill-opacity:1;stroke-width:0.790473;stroke-linecap:round;stroke-linejoin:round"
       id="rect2488"
       width="15.386762"
       height="11.835973"
       x="11.835973"
       y="31.957125"
       rx="1.5814449"
       ry="1.5814446" />
    <path
       style="fill:#525223;fill-opacity:1;stroke:#eded7d;stroke-width:2.36719;stroke-linecap:round;stroke-linejoin:round;stroke-opacity:1"
       id="path2490"
       d="m 34.324319,37.875118 a 4.7343836,4.734375 0 0 1 -4.680308,4.734066 4.7343836,4.734375 0 0 1 -4.787224,-4.625921 4.7343836,4.734375 0 0 1 4.570948,-4.83974 4.7343836,4.734375 0 0 1 4.891643,4.515362" />
    <rect
       style="fill:#ddd66c;fill-opacity:1;stroke-width:0.790473;stroke-linecap:round;stroke-linejoin:round"
       id="rect2492"
       width="15.386762"
       height="11.835973"
       x="11.835971"
       y="49.711082"
       rx="1.5814449"
       ry="1.5814446" />
    <path
       style="fill:#525223;fill-opacity:1;stroke:#eded7d;stroke-width:2.36719;stroke-linecap:round;stroke-linejoin:round;stroke-opacity:1"
       id="path2494"
       d="m 34.324319,55.629078 a 4.7343836,4.734375 0 0 1 -4.680308,4.734066 4.7343836,4.734375 0 0 1 -4.787224,-4.625921 4.7343836,4.734375 0 0 1 4.570948,-4.839741 4.7343836,4.734375 0 0 1 4.891643,4.515363" />
    <rect
       style="fill:#acac51;stroke-width:2.36719;stroke-linecap:round;stroke-linejoin:round"
       id="rect8921"
       width="2.3671944"
       height="28.406334"
       x="57.996262"
       y="23.671944"
       rx="1.5814449"
       ry="1.5814446" />
    <rect
       style="fill:#acac51;stroke-width:2.36719;stroke-linecap:round;stroke-linejoin:round"
       id="rect8923"
       width="2.3671944"
       height="28.406334"
       x="53.261875"
       y="23.671944"
       rx="1.5814449"
       ry="1.5814446" />
    <rect
       style="fill:#ddd66c;fill-opacity:1;stroke-width:0.790473;stroke-linecap:round;stroke-linejoin:round"
       id="rect2496"
       width="15.386762"
       height="11.835973"
       x="-63.914249"
       y="14.203166"
       rx="1.5814449"
       ry="1.5814446"
       transform="scale(-1,1)" />
    <path
       style="fill:#525223;fill-opacity:1;stroke:#eded7d;stroke-width:2.36719;stroke-linecap:round;stroke-linejoin:round;stroke-opacity:1"
       id="path2498"
       d="m -41.425902,20.121153 a 4.7343836,4.734375 0 0 1 -4.680308,4.734066 4.7343836,4.734375 0 0 1 -4.787224,-4.625921 4.7343836,4.734375 0 0 1 4.570948,-4.839741 4.7343836,4.734375 0 0 1 4.891643,4.515363"
       transform="scale(-1,1)" />
    <rect
       style="fill:#ddd66c;fill-opacity:1;stroke-width:0.790473;stroke-linecap:round;stroke-linejoin:round"
       id="rect2500"
       width="15.386762"
       height="11.835973"
       x="-63.914249"
       y="31.957127"
       rx="1.5814449"
       ry="1.5814446"
       transform="scale(-1,1)" />
    <path
       style="fill:#525223;fill-opacity:1;stroke:#eded7d;stroke-width:2.36719;stroke-linecap:round;stroke-linejoin:round;stroke-opacity:1"
       id="path2502"
       d="m -41.425902,37.875122 a 4.7343836,4.734375 0 0 1 -4.680308,4.734066 4.7343836,4.734375 0 0 1 -4.787224,-4.625921 4.7343836,4.734375 0 0 1 4.570948,-4.839741 4.7343836,4.734375 0 0 1 4.891643,4.515363"
       transform="scale(-1,1)" />
    <rect
       style="fill:#ddd66c;fill-opacity:1;stroke-width:0.790473;stroke-linecap:round;stroke-linejoin:round"
       id="rect2504"
       width="15.386762"
       height="11.835973"
       x="-63.914253"
       y="49.711082"
       rx="1.5814449"
       ry="1.5814446"
       transform="scale(-1,1)" />
    <path
       style="fill:#525223;fill-opacity:1;stroke:#eded7d;stroke-width:2.36719;stroke-linecap:round;stroke-linejoin:round;stroke-opacity:1"
       id="path2506"
       d="m -41.425902,55.629078 a 4.7343836,4.734375 0 0 1 -4.680308,4.734066 4.7343836,4.734375 0 0 1 -4.787224,-4.625921 4.7343836,4.734375 0 0 1 4.570948,-4.839741 4.7343836,4.734375 0 0 1 4.891643,4.515363"
       transform="scale(-1,1)" />
  </g>
</svg>
