<?xml version="1.0" encoding="UTF-8" standalone="no"?>
<!-- Created with Inkscape (http://www.inkscape.org/) -->

<svg
   width="256"
   height="256"
   viewBox="0 0 75.750223 75.750223"
   version="1.1"
   id="svg5"
   inkscape:version="1.4.2 (ebf0e94, 2025-05-08)"
   sodipodi:docname="22.svg"
   inkscape:export-filename="../../../towers/energy_plant/22.svg"
   inkscape:export-xdpi="96"
   inkscape:export-ydpi="96"
   inkscape:export-batch-path="/home/lionel/Documents/Godot/tower-defense/assets/towers/energy_plant/22"
   inkscape:export-batch-name=""
   xmlns:inkscape="http://www.inkscape.org/namespaces/inkscape"
   xmlns:sodipodi="http://sodipodi.sourceforge.net/DTD/sodipodi-0.dtd"
   xmlns="http://www.w3.org/2000/svg"
   xmlns:svg="http://www.w3.org/2000/svg">
  <sodipodi:namedview
     id="namedview7"
     pagecolor="#505050"
     bordercolor="#eeeeee"
     borderopacity="1"
     inkscape:showpageshadow="0"
     inkscape:pageopacity="0"
     inkscape:pagecheckerboard="0"
     inkscape:deskcolor="#505050"
     inkscape:document-units="px"
     showgrid="true"
     inkscape:zoom="4.0000002"
     inkscape:cx="112.87499"
     inkscape:cy="111.99999"
     inkscape:window-width="1920"
     inkscape:window-height="1011"
     inkscape:window-x="0"
     inkscape:window-y="32"
     inkscape:window-maximized="1"
     inkscape:current-layer="layer1">
    <inkscape:grid
       id="grid1"
       units="px"
       originx="0"
       originy="0"
       spacingx="1.1835972"
       spacingy="1.1835972"
       empcolor="#0099e5"
       empopacity="0.30196078"
       color="#0099e5"
       opacity="0.14901961"
       empspacing="2"
       enabled="true"
       visible="true"
       snapvisiblegridlinesonly="true" />
    <inkscape:grid
       type="xygrid"
       id="grid404"
       spacingx="37.875112"
       spacingy="37.875112"
       empspacing="1"
       originx="0"
       originy="0"
       units="px" />
  </sodipodi:namedview>
  <defs
     id="defs2" />
  <g
     inkscape:label="Layer 1"
     inkscape:groupmode="layer"
     id="layer1">
    <rect
       style="fill:#1a1a1a;fill-opacity:0;stroke:#ffffff;stroke-width:0.591799;stroke-dasharray:none;stroke-opacity:0"
       id="rect111"
       width="75.158424"
       height="75.158424"
       x="0.29589844"
       y="0.29589844" />
    <rect
       style="fill:#313135;fill-opacity:1;stroke-width:0.591799;stroke-dasharray:none"
       id="rect1"
       width="66.281441"
       height="66.281441"
       x="4.7343888"
       y="-71.015831"
       ry="4.5864406"
       rx="4.5864406"
       transform="rotate(90)" />
  </g>
  <g
     inkscape:groupmode="layer"
     id="layer2"
     inkscape:label="Factory">
    <rect
       style="fill:#44464f;fill-opacity:1;stroke-width:0.591612;stroke-linecap:round;stroke-linejoin:round"
       id="rect6"
       width="56.812672"
       height="56.812672"
       x="9.4687748"
       y="9.4687757"
       rx="1.1835972"
       ry="1.1835972" />
    <rect
       style="fill:#acac51;stroke-width:2.36719;stroke-linecap:round;stroke-linejoin:round"
       id="rect10448"
       width="2.3671944"
       height="9.4687767"
       x="10.652375"
       y="15.386764"
       rx="4.5864406"
       ry="1.1835958" />
    <rect
       style="fill:#acac51;stroke-width:2.36719;stroke-linecap:round;stroke-linejoin:round"
       id="rect8917"
       width="2.3671944"
       height="28.406334"
       x="15.386764"
       y="23.671944"
       rx="1.5814449"
       ry="1.5814446" />
    <rect
       style="fill:#acac51;stroke-width:2.36719;stroke-linecap:round;stroke-linejoin:round"
       id="rect8919"
       width="2.3671944"
       height="28.406334"
       x="20.121153"
       y="23.671944"
       rx="1.5814449"
       ry="1.5814446" />
    <rect
       style="fill:#ddd66c;fill-opacity:1;stroke-width:0.790473;stroke-linecap:round;stroke-linejoin:round"
       id="rect1016"
       width="15.386762"
       height="11.835973"
       x="11.835973"
       y="14.203167"
       rx="1.5814449"
       ry="1.5814446" />
    <path
       style="fill:#525223;fill-opacity:1;stroke:#eded7d;stroke-width:2.36719;stroke-linecap:round;stroke-linejoin:round;stroke-opacity:1"
       id="path1018"
       sodipodi:type="arc"
       sodipodi:cx="29.589935"
       sodipodi:cy="20.121161"
       sodipodi:rx="4.7343836"
       sodipodi:ry="4.734375"
       sodipodi:start="0"
       sodipodi:end="6.2374964"
       sodipodi:open="true"
       sodipodi:arc-type="arc"
       d="m 34.324319,20.121161 a 4.7343836,4.734375 0 0 1 -4.680308,4.734066 4.7343836,4.734375 0 0 1 -4.787224,-4.625922 4.7343836,4.734375 0 0 1 4.570948,-4.83974 4.7343836,4.734375 0 0 1 4.891643,4.515362" />
    <rect
       style="fill:#acac51;stroke-width:2.36719;stroke-linecap:round;stroke-linejoin:round"
       id="rect10450"
       width="2.3671944"
       height="9.4687767"
       x="10.652375"
       y="33.140724"
       rx="4.5864406"
       ry="1.1835958" />
    <rect
       style="fill:#ddd66c;fill-opacity:1;stroke-width:0.790473;stroke-linecap:round;stroke-linejoin:round"
       id="rect2488"
       width="15.386762"
       height="11.835973"
       x="11.835973"
       y="31.957125"
       rx="1.5814449"
       ry="1.5814446" />
    <path
       style="fill:#525223;fill-opacity:1;stroke:#eded7d;stroke-width:2.36719;stroke-linecap:round;stroke-linejoin:round;stroke-opacity:1"
       id="path2490"
       sodipodi:type="arc"
       sodipodi:cx="29.589935"
       sodipodi:cy="37.875118"
       sodipodi:rx="4.7343836"
       sodipodi:ry="4.734375"
       sodipodi:start="0"
       sodipodi:end="6.2374964"
       sodipodi:open="true"
       sodipodi:arc-type="arc"
       d="m 34.324319,37.875118 a 4.7343836,4.734375 0 0 1 -4.680308,4.734066 4.7343836,4.734375 0 0 1 -4.787224,-4.625921 4.7343836,4.734375 0 0 1 4.570948,-4.83974 4.7343836,4.734375 0 0 1 4.891643,4.515362" />
    <rect
       style="fill:#acac51;stroke-width:2.36719;stroke-linecap:round;stroke-linejoin:round"
       id="rect10452"
       width="2.3671944"
       height="9.4687767"
       x="10.652375"
       y="50.89468"
       rx="4.5864406"
       ry="1.1835958" />
    <rect
       style="fill:#ddd66c;fill-opacity:1;stroke-width:0.790473;stroke-linecap:round;stroke-linejoin:round"
       id="rect2492"
       width="15.386762"
       height="11.835973"
       x="11.835971"
       y="49.711082"
       rx="1.5814449"
       ry="1.5814446" />
    <path
       style="fill:#525223;fill-opacity:1;stroke:#eded7d;stroke-width:2.36719;stroke-linecap:round;stroke-linejoin:round;stroke-opacity:1"
       id="path2494"
       sodipodi:type="arc"
       sodipodi:cx="29.589935"
       sodipodi:cy="55.629078"
       sodipodi:rx="4.7343836"
       sodipodi:ry="4.734375"
       sodipodi:start="0"
       sodipodi:end="6.2374964"
       sodipodi:open="true"
       sodipodi:arc-type="arc"
       d="m 34.324319,55.629078 a 4.7343836,4.734375 0 0 1 -4.680308,4.734066 4.7343836,4.734375 0 0 1 -4.787224,-4.625921 4.7343836,4.734375 0 0 1 4.570948,-4.839741 4.7343836,4.734375 0 0 1 4.891643,4.515363" />
    <rect
       style="fill:#acac51;stroke-width:2.36719;stroke-linecap:round;stroke-linejoin:round"
       id="rect10458"
       width="2.3671944"
       height="9.4687767"
       x="62.730652"
       y="15.386764"
       rx="4.5864406"
       ry="1.1835958" />
    <rect
       style="fill:#acac51;stroke-width:2.36719;stroke-linecap:round;stroke-linejoin:round"
       id="rect10584"
       width="2.3671944"
       height="28.406334"
       x="57.996262"
       y="23.671944"
       rx="1.5814449"
       ry="1.5814446" />
    <rect
       style="fill:#acac51;stroke-width:2.36719;stroke-linecap:round;stroke-linejoin:round"
       id="rect10582"
       width="2.3671944"
       height="28.406334"
       x="53.261871"
       y="23.671944"
       rx="1.5814449"
       ry="1.5814446" />
    <rect
       style="fill:#ddd66c;fill-opacity:1;stroke-width:0.790473;stroke-linecap:round;stroke-linejoin:round"
       id="rect2496"
       width="15.386762"
       height="11.835973"
       x="-63.914246"
       y="14.203166"
       rx="1.5814449"
       ry="1.5814446"
       transform="scale(-1,1)" />
    <path
       style="fill:#525223;fill-opacity:1;stroke:#eded7d;stroke-width:2.36719;stroke-linecap:round;stroke-linejoin:round;stroke-opacity:1"
       id="path2498"
       sodipodi:type="arc"
       sodipodi:cx="-46.160282"
       sodipodi:cy="20.121161"
       sodipodi:rx="4.7343836"
       sodipodi:ry="4.734375"
       sodipodi:start="0"
       sodipodi:end="6.2374964"
       sodipodi:open="true"
       sodipodi:arc-type="arc"
       d="m -41.425899,20.121161 a 4.7343836,4.734375 0 0 1 -4.680307,4.734066 4.7343836,4.734375 0 0 1 -4.787224,-4.625922 4.7343836,4.734375 0 0 1 4.570948,-4.83974 4.7343836,4.734375 0 0 1 4.891643,4.515362"
       transform="scale(-1,1)" />
    <rect
       style="fill:#acac51;stroke-width:2.36719;stroke-linecap:round;stroke-linejoin:round"
       id="rect10456"
       width="2.3671944"
       height="9.4687767"
       x="62.730652"
       y="33.14072"
       rx="4.5864406"
       ry="1.1835958" />
    <rect
       style="fill:#ddd66c;fill-opacity:1;stroke-width:0.790473;stroke-linecap:round;stroke-linejoin:round"
       id="rect2500"
       width="15.386762"
       height="11.835973"
       x="-63.914249"
       y="31.957127"
       rx="1.5814449"
       ry="1.5814446"
       transform="scale(-1,1)" />
    <path
       style="fill:#525223;fill-opacity:1;stroke:#eded7d;stroke-width:2.36719;stroke-linecap:round;stroke-linejoin:round;stroke-opacity:1"
       id="path2502"
       sodipodi:type="arc"
       sodipodi:cx="-46.160286"
       sodipodi:cy="37.875122"
       sodipodi:rx="4.7343836"
       sodipodi:ry="4.734375"
       sodipodi:start="0"
       sodipodi:end="6.2374964"
       sodipodi:open="true"
       sodipodi:arc-type="arc"
       d="m -41.425902,37.875122 a 4.7343836,4.734375 0 0 1 -4.680308,4.734066 4.7343836,4.734375 0 0 1 -4.787224,-4.625921 4.7343836,4.734375 0 0 1 4.570948,-4.839741 4.7343836,4.734375 0 0 1 4.891643,4.515363"
       transform="scale(-1,1)" />
    <rect
       style="fill:#acac51;stroke-width:2.36719;stroke-linecap:round;stroke-linejoin:round"
       id="rect10454"
       width="2.3671944"
       height="9.4687767"
       x="62.730652"
       y="50.89468"
       rx="4.5864406"
       ry="1.1835958" />
    <rect
       style="fill:#ddd66c;fill-opacity:1;stroke-width:0.790473;stroke-linecap:round;stroke-linejoin:round"
       id="rect2504"
       width="15.386762"
       height="11.835973"
       x="-63.914253"
       y="49.711082"
       rx="1.5814449"
       ry="1.5814446"
       transform="scale(-1,1)" />
    <path
       style="fill:#525223;fill-opacity:1;stroke:#eded7d;stroke-width:2.36719;stroke-linecap:round;stroke-linejoin:round;stroke-opacity:1"
       id="path2506"
       sodipodi:type="arc"
       sodipodi:cx="-46.160286"
       sodipodi:cy="55.629078"
       sodipodi:rx="4.7343836"
       sodipodi:ry="4.734375"
       sodipodi:start="0"
       sodipodi:end="6.2374964"
       sodipodi:open="true"
       sodipodi:arc-type="arc"
       d="m -41.425902,55.629078 a 4.7343836,4.734375 0 0 1 -4.680308,4.734066 4.7343836,4.734375 0 0 1 -4.787224,-4.625921 4.7343836,4.734375 0 0 1 4.570948,-4.839741 4.7343836,4.734375 0 0 1 4.891643,4.515363"
       transform="scale(-1,1)" />
    <rect
       style="fill:#eaea7b;fill-opacity:1;stroke-width:2.36719;stroke-linecap:round;stroke-linejoin:round"
       id="rect10666"
       width="8.285181"
       height="7.1015835"
       x="14.203167"
       y="16.57036"
       rx="1.1835984"
       ry="1.1835959" />
    <rect
       style="fill:#e9e971;fill-opacity:1;stroke-width:2.36719;stroke-linecap:round;stroke-linejoin:round"
       id="rect11031"
       width="8.285181"
       height="7.1015835"
       x="14.203166"
       y="34.324318"
       rx="1.1835984"
       ry="1.1835959" />
    <rect
       style="fill:#e9e971;fill-opacity:1;stroke-width:2.36719;stroke-linecap:round;stroke-linejoin:round"
       id="rect11033"
       width="8.285181"
       height="7.1015835"
       x="14.203166"
       y="52.078278"
       rx="1.1835984"
       ry="1.1835959" />
    <rect
       style="fill:#e9e971;fill-opacity:1;stroke-width:2.36719;stroke-linecap:round;stroke-linejoin:round"
       id="rect11035"
       width="8.285181"
       height="7.1015835"
       x="53.261875"
       y="52.078278"
       rx="1.1835984"
       ry="1.1835959" />
    <rect
       style="fill:#e9e971;fill-opacity:1;stroke-width:2.36719;stroke-linecap:round;stroke-linejoin:round"
       id="rect11037"
       width="8.285181"
       height="7.1015835"
       x="53.261875"
       y="34.324318"
       rx="1.1835984"
       ry="1.1835959" />
    <rect
       style="fill:#e9e971;fill-opacity:1;stroke-width:2.36719;stroke-linecap:round;stroke-linejoin:round"
       id="rect11039"
       width="8.285181"
       height="7.1015835"
       x="53.261875"
       y="16.57036"
       rx="1.1835984"
       ry="1.1835959" />
    <path
       style="fill:#eaea7b;fill-opacity:1;stroke-width:8;stroke-linecap:round;stroke-linejoin:round"
       d="m 50.374997,139.5283 c -0.941437,-0.4205 -1.499638,-1.04221 -1.990465,-2.21693 -0.320325,-0.76664 -0.384535,-2.33215 -0.384535,-9.37538 0,-8.27536 0.01196,-8.47845 0.5625,-9.55589 0.309375,-0.60546 0.880125,-1.33242 1.268333,-1.61547 0.688186,-0.50177 0.992417,-0.51464 12.169166,-0.51464 11.262867,0 11.475677,0.009 12.169167,0.52614 0.388207,0.28937 0.930832,0.90812 1.205832,1.375 0.47502,0.80645 0.5,1.29849 0.5,9.84886 0,8.55038 -0.02497,9.04241 -0.5,9.84887 -0.275,0.46688 -0.817505,1.08563 -1.205565,1.375 -0.68976,0.51434 -0.955787,0.5274 -11.875,0.58278 -8.892096,0.0451 -11.322351,-0.0116 -11.919433,-0.27834 z"
       id="path17213"
       transform="scale(0.29589931)" />
    <path
       style="fill:#eaea7b;fill-opacity:1;stroke-width:8;stroke-linecap:round;stroke-linejoin:round"
       d="m 50.374997,199.5283 c -0.941437,-0.42051 -1.499638,-1.04222 -1.990465,-2.21693 -0.320325,-0.76665 -0.384535,-2.33215 -0.384535,-9.37538 0,-8.27537 0.01196,-8.47845 0.5625,-9.55589 0.309375,-0.60546 0.880125,-1.33243 1.268333,-1.61548 0.688186,-0.50176 0.992417,-0.51463 12.169166,-0.51463 11.262867,0 11.475677,0.009 12.169167,0.52613 0.388207,0.28937 0.930832,0.90812 1.205832,1.375 0.47502,0.80646 0.5,1.29849 0.5,9.84887 0,8.55038 -0.02497,9.04241 -0.5,9.84887 -0.275,0.46687 -0.817505,1.08562 -1.205565,1.375 -0.68976,0.51434 -0.955787,0.5274 -11.875,0.58278 -8.892096,0.0451 -11.322351,-0.0116 -11.919433,-0.27834 z"
       id="path17215"
       transform="scale(0.29589931)" />
    <path
       style="fill:#eaea7b;fill-opacity:1;stroke-width:8;stroke-linecap:round;stroke-linejoin:round"
       d="m 182.37499,199.5283 c -0.94144,-0.42051 -1.49964,-1.04222 -1.99047,-2.21693 -0.32032,-0.76665 -0.38453,-2.33215 -0.38453,-9.37538 0,-8.27537 0.012,-8.47845 0.5625,-9.55589 0.30937,-0.60546 0.88012,-1.33243 1.26833,-1.61548 0.68819,-0.50176 0.99242,-0.51463 12.16917,-0.51463 11.26286,0 11.47567,0.009 12.16916,0.52613 0.38821,0.28937 0.93084,0.90812 1.20584,1.375 0.47502,0.80646 0.5,1.29849 0.5,9.84887 0,8.55038 -0.025,9.04241 -0.5,9.84887 -0.275,0.46687 -0.81751,1.08562 -1.20557,1.375 -0.68976,0.51434 -0.95579,0.5274 -11.875,0.58278 -8.89209,0.0451 -11.32235,-0.0116 -11.91943,-0.27834 z"
       id="path17217"
       transform="scale(0.29589931)" />
    <path
       style="fill:#eaea7b;fill-opacity:1;stroke-width:8;stroke-linecap:round;stroke-linejoin:round"
       d="m 182.37499,139.5283 c -0.94144,-0.4205 -1.49964,-1.04221 -1.99047,-2.21693 -0.32032,-0.76664 -0.38453,-2.33215 -0.38453,-9.37538 0,-8.27536 0.012,-8.47845 0.5625,-9.55589 0.30937,-0.60546 0.88012,-1.33242 1.26833,-1.61547 0.68819,-0.50177 0.99242,-0.51464 12.16917,-0.51464 11.26286,0 11.47567,0.009 12.16916,0.52614 0.38821,0.28937 0.93084,0.90812 1.20584,1.375 0.47502,0.80645 0.5,1.29849 0.5,9.84886 0,8.55038 -0.025,9.04241 -0.5,9.84887 -0.275,0.46688 -0.81751,1.08563 -1.20557,1.375 -0.68976,0.51434 -0.95579,0.5274 -11.875,0.58278 -8.89209,0.0451 -11.32235,-0.0116 -11.91943,-0.27834 z"
       id="path17219"
       transform="scale(0.29589931)" />
    <path
       style="fill:#eaea7b;fill-opacity:1;stroke-width:8;stroke-linecap:round;stroke-linejoin:round"
       d="m 182.37499,79.528304 c -0.94144,-0.420503 -1.49964,-1.042213 -1.99047,-2.216929 -0.32032,-0.766644 -0.38453,-2.332152 -0.38453,-9.375377 0,-8.275366 0.012,-8.478452 0.5625,-9.555894 0.30937,-0.60546 0.88012,-1.332422 1.26833,-1.615472 0.68819,-0.501769 0.99242,-0.514635 12.16917,-0.514635 11.26286,0 11.47567,0.0092 12.16916,0.526132 0.38821,0.289373 0.93084,0.908123 1.20584,1.375 0.47502,0.80646 0.5,1.29849 0.5,9.848867 0,8.550377 -0.025,9.042407 -0.5,9.848867 -0.275,0.466877 -0.81751,1.085627 -1.20557,1.375 -0.68976,0.514346 -0.95579,0.527401 -11.875,0.582785 -8.89209,0.0451 -11.32235,-0.01165 -11.91943,-0.278344 z"
       id="path17221"
       transform="scale(0.29589931)" />
  </g>
</svg>
