<?xml version="1.0" encoding="UTF-8" standalone="no"?>
<!-- Created with Inkscape (http://www.inkscape.org/) -->

<svg
   width="120"
   height="120"
   viewBox="0 0 120 120"
   version="1.1"
   id="SVGRoot"
   xmlns="http://www.w3.org/2000/svg"
   xmlns:svg="http://www.w3.org/2000/svg">
  <defs
     id="defs132" />
  <g
     id="g105"
     style="display:inline"
     transform="translate(-836,-324)">
    <g
       id="g104"
       style="display:inline;stroke-width:1.00379"
       transform="matrix(0.99999987,0,0,0.99247433,768.00002,2.8898562)">
      <path
         style="display:inline;fill:#3f98f2;fill-opacity:1;stroke-width:8.03027;stroke-linecap:round;stroke-linejoin:round"
         id="path102"
         d="m 188.00001,384 a 60.000008,60.454964 0 0 1 -59.31469,60.45102 60.000008,60.454964 0 0 1 -60.669672,-59.07008 60.000008,60.454964 0 0 1 57.928752,-61.80041 60.000008,60.454964 0 0 1 61.99299,57.65831" />
      <path
         style="display:inline;fill:#baddff;fill-opacity:1;stroke:none;stroke-width:1.00378px;stroke-linecap:butt;stroke-linejoin:miter;stroke-opacity:1"
         d="m 164.76955,346.95164 -14.14213,8.54963 -50.9117,51.29773 -8.485276,14.24937 14.142136,-8.54962 50.91169,-51.29774 z"
         id="path103" />
      <path
         style="display:inline;fill:#baddff;fill-opacity:1;stroke:none;stroke-width:1.00378px;stroke-linecap:butt;stroke-linejoin:miter;stroke-opacity:1"
         d="m 102.54415,358.35114 8.48528,14.24936 28.28428,28.49874 14.14213,8.54962 -8.48528,-14.24936 -28.28428,-28.49874 z"
         id="path104" />
    </g>
  </g>
</svg>
