<?xml version="1.0" encoding="UTF-8" standalone="no"?>
<!-- Created with Inkscape (http://www.inkscape.org/) -->

<svg
   inkscape:export-batch-name=""
   inkscape:export-batch-path="C:\Users\kevin\OneDrive\Desktop\Tower Defence\tower-defense\assets\towers\bullet_factory\20"
   inkscape:export-ydpi="96"
   inkscape:export-xdpi="96"
   inkscape:export-filename="../towers/crossbow/preview.svg"
   sodipodi:docname="40.svg"
   inkscape:version="1.2.2 (b0a8486541, 2022-12-01)"
   id="svg5"
   version="1.1"
   viewBox="0 0 75.750223 75.750223"
   height="256"
   width="256"
   xmlns:inkscape="http://www.inkscape.org/namespaces/inkscape"
   xmlns:sodipodi="http://sodipodi.sourceforge.net/DTD/sodipodi-0.dtd"
   xmlns:xlink="http://www.w3.org/1999/xlink"
   xmlns="http://www.w3.org/2000/svg"
   xmlns:svg="http://www.w3.org/2000/svg">
  <sodipodi:namedview
     id="namedview7"
     pagecolor="#505050"
     bordercolor="#eeeeee"
     borderopacity="1"
     inkscape:showpageshadow="0"
     inkscape:pageopacity="0"
     inkscape:pagecheckerboard="0"
     inkscape:deskcolor="#505050"
     inkscape:document-units="px"
     showgrid="true"
     inkscape:zoom="2.0000001"
     inkscape:cx="102.74999"
     inkscape:cy="95.499994"
     inkscape:window-width="1920"
     inkscape:window-height="1011"
     inkscape:window-x="0"
     inkscape:window-y="32"
     inkscape:window-maximized="1"
     inkscape:current-layer="layer4">
    <inkscape:grid
       id="grid1"
       units="px"
       originx="0"
       originy="0"
       spacingx="1.1835972"
       spacingy="1.1835972"
       empcolor="#0099e5"
       empopacity="0.30196078"
       color="#0099e5"
       opacity="0.14901961"
       empspacing="2"
       enabled="true"
       visible="true"
       snapvisiblegridlinesonly="true" />
  </sodipodi:namedview>
  <defs
     id="defs2">
    <linearGradient
       inkscape:collect="always"
       xlink:href="#linearGradient7"
       id="linearGradient4"
       gradientUnits="userSpaceOnUse"
       gradientTransform="matrix(1,0,0,0.9895835,-6.8056868,-17.741639)"
       x1="44.976692"
       y1="54.445473"
       x2="44.976692"
       y2="62.780487" />
    <linearGradient
       id="linearGradient7"
       inkscape:collect="always">
      <stop
         style="stop-color:#f9e8b6;stop-opacity:0.54777068;"
         offset="0"
         id="stop6" />
      <stop
         style="stop-color:#f0c910;stop-opacity:0;"
         offset="1"
         id="stop7" />
    </linearGradient>
  </defs>
  <g
     inkscape:label="Layer 1"
     inkscape:groupmode="layer"
     id="layer1">
    <rect
       style="fill:#313135;fill-opacity:1;stroke-width:0.591799;stroke-dasharray:none"
       id="rect1"
       width="66.281441"
       height="66.281441"
       x="4.7343888"
       y="-71.015831"
       ry="4.5864406"
       rx="4.5864406"
       transform="rotate(90)" />
  </g>
  <g
     inkscape:groupmode="layer"
     id="layer2"
     inkscape:label="Factory">
    <rect
       style="fill:#44464f;fill-opacity:1;stroke-width:0.591612;stroke-linecap:round;stroke-linejoin:round"
       id="rect6"
       width="56.812672"
       height="56.812672"
       x="9.4687777"
       y="9.4687777"
       rx="1.1835972"
       ry="1.1835972"
       inkscape:label="base" />
    <g
       id="g898"
       transform="translate(-2.3671929,1.7753972)"
       inkscape:label="road">
      <rect
         style="fill:#313135;fill-opacity:1;stroke-width:1.21436;stroke-linecap:round"
         id="rect9"
         width="14.203166"
         height="31.069422"
         x="33.14072"
         y="34.916115"
         rx="0.59180027"
         ry="0.62294465"
         inkscape:label="road" />
      <path
         style="fill:none;fill-opacity:1;stroke:#c9cacf;stroke-width:0.591799;stroke-linecap:round;stroke-dasharray:none;stroke-opacity:1"
         d="m 40.242305,37.875105 v 1.775396"
         id="path1232"
         inkscape:label="dash1" />
      <path
         style="fill:none;fill-opacity:1;stroke:#c9cacf;stroke-width:0.591799;stroke-linecap:round;stroke-dasharray:none;stroke-opacity:1"
         d="m 40.242305,42.609497 v 1.775396"
         id="path9"
         inkscape:label="dash2" />
      <path
         style="fill:none;fill-opacity:1;stroke:#c9cacf;stroke-width:0.591799;stroke-linecap:round;stroke-dasharray:none;stroke-opacity:1"
         d="m 40.242305,47.343886 v 1.775396"
         id="path9-8"
         inkscape:label="dash3" />
      <path
         style="fill:none;fill-opacity:1;stroke:#c9cacf;stroke-width:0.591799;stroke-linecap:round;stroke-dasharray:none;stroke-opacity:1"
         d="m 40.242305,52.078275 v 1.775396"
         id="path9-8-2"
         inkscape:label="dash4" />
      <path
         style="fill:none;fill-opacity:1;stroke:#c9cacf;stroke-width:0.591799;stroke-linecap:round;stroke-dasharray:none;stroke-opacity:1"
         d="m 40.242305,56.812665 v 1.775397"
         id="path9-8-4"
         inkscape:label="dash5" />
      <path
         style="fill:none;fill-opacity:1;stroke:#c9cacf;stroke-width:0.591799;stroke-linecap:round;stroke-dasharray:none;stroke-opacity:1"
         d="m 40.242305,61.547056 v 1.775397"
         id="path9-8-4-5"
         inkscape:label="dash6" />
      <path
         style="display:inline;fill:url(#linearGradient4);fill-opacity:1;stroke-width:1.17742;stroke-linecap:round"
         d="m 33.14072,36.099713 -1.183597,9.468778 h 16.570361 l -1.183598,-9.468778 z"
         id="path1-8"
         sodipodi:nodetypes="ccccc"
         inkscape:label="light" />
    </g>
    <rect
       style="fill:#425368;fill-opacity:1;stroke-width:0.591612;stroke-linecap:round;stroke-linejoin:round;stroke-dasharray:0, 6.50771"
       id="rect1287"
       width="33.14072"
       height="23.671946"
       x="21.30475"
       y="14.203166"
       rx="1.1835999"
       ry="1.1835999" />
  </g>
  <g
     inkscape:groupmode="layer"
     id="layer3"
     inkscape:label="Gear">
    <g
       inkscape:label="Rendered Gears"
       transform="matrix(-0.07991428,0.24885916,-0.24885916,-0.07991428,47.112722,26.060681)"
       id="g18290"
       style="fill:#2f3f55;fill-opacity:1;stroke:none;stroke-width:3.82591">
      <path
         style="fill:#2f3f55;fill-opacity:1;stroke:none;stroke-width:3.82591"
         d="m 20.861633,-7.1610644 4.3012,-0.57413 0.4382,-0.00663 4.9526,1.62155 v 4.2355 l -4.9526,1.62155001 -0.4382,-0.00663 -4.3012,-0.57413 -1.591,5.93776999 4.012,1.65339 0.3828,0.2134 3.4783,3.8806004 -2.1178,3.668 -5.0998,-1.072 -0.3761,-0.2248 -3.438,-2.6478 -4.3467,4.3467 2.6478,3.438 0.2248,0.3761 1.072,5.0998 -3.668,2.1178 -3.8806001,-3.4783 -0.2134,-0.3828 -1.65339,-4.012 -5.93776997,1.591 0.57413,4.3012 0.00663,0.4382 -1.62155,4.9526 H -4.9195171 l -1.62155,-4.9526 0.00663,-0.4382 0.57413,-4.3012 -5.9377699,-1.591 -1.65339,4.012 -0.2134,0.3828 -3.8806,3.4783 -3.668,-2.1178 1.072,-5.0998 0.2248,-0.3761 2.6478,-3.438 -4.3467,-4.3467 -3.438,2.6478 -0.3761,0.2248 -5.0998,1.072 -2.1178,-3.668 3.4783,-3.8806004 0.3828,-0.2134 4.012,-1.65339 -1.591,-5.93776999 -4.3012,0.57413 -0.4382,0.00663 -4.9526,-1.62155001 v -4.2355 l 4.9526,-1.62155 0.4382,0.00663 4.3012,0.57413 1.591,-5.9377696 -4.012,-1.65339 -0.3828,-0.2134 -3.4783,-3.8806 2.1178,-3.668 5.0998,1.072 0.3761,0.2248 3.438,2.6478 4.3467,-4.3467 -2.6478,-3.438 -0.2248,-0.3761 -1.072,-5.0998 3.668,-2.1178 3.8806,3.4783 0.2134,0.3828 1.65339,4.012 5.9377699,-1.591 -0.57413,-4.3012 -0.00663,-0.4382 1.62155,-4.9526 h 4.23550003 l 1.62155,4.9526 -0.00663,0.4382 -0.57413,4.3012 5.93776997,1.591 1.65339,-4.012 0.2134,-0.3828 3.8806001,-3.4783 3.668,2.1178 -1.072,5.0998 -0.2248,0.3761 -2.6478,3.438 4.3467,4.3467 3.438,-2.6478 0.3761,-0.2248 5.0998,-1.072 2.1178,3.668 -3.4783,3.8806 -0.3828,0.2134 -4.012,1.65339 z"
         id="path18286" />
    </g>
  </g>
  <g
     inkscape:groupmode="layer"
     id="layer4"
     inkscape:label="Second Floor">
    <rect
       style="fill:#445d77;fill-opacity:1;stroke-width:0.591612;stroke-linecap:round;stroke-linejoin:round;stroke-dasharray:0, 6.50771"
       id="rect1289"
       width="16.57036"
       height="52.078278"
       x="47.343887"
       y="11.835971"
       rx="1.1835999"
       ry="1.1835998" />
    <g
       id="g32425"
       inkscape:label="pipe"
       transform="translate(1.1835962,4.734389)">
      <path
         style="fill:#324555;fill-opacity:1;stroke:none;stroke-width:0.14795;stroke-linecap:round;stroke-linejoin:round;stroke-dasharray:none;stroke-opacity:1;paint-order:normal"
         id="path30855"
         sodipodi:type="arc"
         sodipodi:cx="35.508999"
         sodipodi:cy="18.936474"
         sodipodi:rx="2.3682759"
         sodipodi:ry="2.3682759"
         sodipodi:start="0"
         sodipodi:end="6.2374964"
         sodipodi:open="true"
         sodipodi:arc-type="arc"
         d="m 37.877275,18.936474 a 2.3682759,2.3682759 0 0 1 -2.341226,2.368121 2.3682759,2.3682759 0 0 1 -2.394708,-2.314024 2.3682759,2.3682759 0 0 1 2.286521,-2.420983 2.3682759,2.3682759 0 0 1 2.446941,2.25872" />
      <path
         style="fill:none;stroke:#4a658a;stroke-width:2.95899;stroke-linecap:round;stroke-linejoin:miter;stroke-dasharray:none;stroke-opacity:1"
         d="M 35.507917,18.937555 H 30.773528"
         id="path32417" />
      <path
         style="fill:none;stroke:#324555;stroke-width:2.36719;stroke-linecap:round;stroke-linejoin:miter;stroke-dasharray:none;stroke-opacity:1"
         d="m 33.140723,17.753958 v 2.367194"
         id="path32433"
         transform="translate(-1.1835962)" />
    </g>
    <g
       id="g32493"
       inkscape:label="pipe"
       transform="translate(1.1835962,10.652375)">
      <path
         style="fill:#324555;fill-opacity:1;stroke:none;stroke-width:0.14795;stroke-linecap:round;stroke-linejoin:round;stroke-dasharray:none;stroke-opacity:1;paint-order:normal"
         id="path32487"
         sodipodi:type="arc"
         sodipodi:cx="35.508999"
         sodipodi:cy="18.936474"
         sodipodi:rx="2.3682759"
         sodipodi:ry="2.3682759"
         sodipodi:start="0"
         sodipodi:end="6.2374964"
         sodipodi:open="true"
         sodipodi:arc-type="arc"
         d="m 37.877275,18.936474 a 2.3682759,2.3682759 0 0 1 -2.341226,2.368121 2.3682759,2.3682759 0 0 1 -2.394708,-2.314024 2.3682759,2.3682759 0 0 1 2.286521,-2.420983 2.3682759,2.3682759 0 0 1 2.446941,2.25872" />
      <path
         style="fill:none;stroke:#4a658a;stroke-width:2.95899;stroke-linecap:round;stroke-linejoin:miter;stroke-dasharray:none;stroke-opacity:1"
         d="M 35.507917,18.937555 H 30.773528"
         id="path32489" />
      <path
         style="fill:none;stroke:#324555;stroke-width:2.36719;stroke-linecap:round;stroke-linejoin:miter;stroke-dasharray:none;stroke-opacity:1"
         d="m 33.140723,17.753958 v 2.367194"
         id="path32491"
         transform="translate(-1.1835962)" />
    </g>
    <rect
       style="fill:#445d77;fill-opacity:1;stroke-width:0.591612;stroke-linecap:round;stroke-linejoin:round;stroke-dasharray:0, 6.50771"
       id="rect1296"
       width="16.570354"
       height="52.078285"
       x="11.835976"
       y="11.835972"
       rx="1.1835999"
       ry="1.1835998" />
    <rect
       style="fill:#507095;fill-opacity:1;stroke:none;stroke-width:1.7754;stroke-linecap:round;stroke-linejoin:round;stroke-dasharray:none;stroke-opacity:1"
       id="rect18474"
       width="14.203167"
       height="49.711082"
       x="48.527485"
       y="13.01957"
       rx="1.1835999"
       ry="1.1836001" />
    <rect
       style="fill:#4b6587;fill-opacity:1;stroke-width:0.59161;stroke-linecap:round;stroke-linejoin:round;stroke-dasharray:0, 6.5077"
       id="rect2754"
       width="18.937548"
       height="18.937553"
       x="14.20317"
       y="15.386765"
       rx="1.1835998"
       ry="1.1836001" />
    <rect
       style="fill:#507095;fill-opacity:1;stroke:none;stroke-width:1.7754;stroke-linecap:round;stroke-linejoin:round;stroke-dasharray:none;stroke-opacity:1"
       id="rect18596"
       width="14.203167"
       height="49.711082"
       x="13.019569"
       y="13.019568"
       rx="1.1835999"
       ry="1.1835999" />
    <path
       style="fill:none;stroke:#2b3f59;stroke-width:1.7754;stroke-linecap:round;stroke-linejoin:miter;stroke-dasharray:none;stroke-opacity:1"
       d="M 20.121152,30.773527 V 54.445469"
       id="path18357" />
    <path
       style="fill:none;stroke:#2b3f59;stroke-width:1.7754;stroke-linecap:round;stroke-linejoin:miter;stroke-dasharray:none;stroke-opacity:1"
       d="M 24.855541,30.773527 V 54.445469"
       id="path18361" />
    <rect
       style="fill:#7399c4;fill-opacity:1;stroke-width:0.591613;stroke-linecap:round;stroke-linejoin:round;stroke-dasharray:0, 6.50768"
       id="rect18599"
       width="16.57036"
       height="16.570362"
       x="15.386764"
       y="16.57036"
       rx="1.1835999"
       ry="1.1836001" />
    <rect
       style="fill:#22292e;fill-opacity:1;stroke-width:0.591612;stroke-linecap:round;stroke-linejoin:round;stroke-dasharray:0, 6.50769"
       id="rect2756"
       width="11.835973"
       height="11.835972"
       x="17.753958"
       y="18.937555"
       rx="1.1836001"
       ry="1.1836001" />
    <rect
       style="fill:#688cbe;fill-opacity:1;stroke:none;stroke-width:1.7754;stroke-linecap:round;stroke-linejoin:round;stroke-dasharray:none;stroke-opacity:1"
       id="rect28508"
       width="9.4687767"
       height="21.304741"
       x="50.89468"
       y="39.058712"
       rx="1.1835999"
       ry="1.1835999" />
  </g>
  <g
     inkscape:groupmode="layer"
     id="layer5"
     inkscape:label="thingy dingy">
    <rect
       style="fill:#5b85b5;fill-opacity:1;stroke:none;stroke-width:1.7754;stroke-linecap:round;stroke-linejoin:round;stroke-dasharray:none;stroke-opacity:1"
       id="rect18418"
       width="3.5507917"
       height="4.7343888"
       x="18.345757"
       y="35.507915"
       rx="1.1835999"
       ry="1.1835999" />
    <rect
       style="fill:#5b85b5;fill-opacity:1;stroke:none;stroke-width:1.7754;stroke-linecap:round;stroke-linejoin:round;stroke-dasharray:none;stroke-opacity:1"
       id="rect18420"
       width="3.5507917"
       height="4.7343888"
       x="23.080145"
       y="47.343887"
       rx="1.1835999"
       ry="1.1835999" />
  </g>
  <g
     inkscape:groupmode="layer"
     id="layer6"
     inkscape:label="thingy dingy 2" />
  <g
     inkscape:groupmode="layer"
     id="layer7"
     inkscape:label="top gear"
     transform="matrix(0.637247 0 0 0.638492 20.387 10.5552)"
     style="stroke-width:1.56772">
    <g
       inkscape:label="Rendered Gears"
       transform="matrix(0.3525727,0,0,0.3518852,55.187538,18.878204)"
       id="g24271"
       style="fill:#6287ba;fill-opacity:1;stroke:none;stroke-width:6.97769">
      <path
         style="fill:#5b85b5;fill-opacity:1;stroke:none;stroke-width:4.45085"
         d="m 18.8581,-3.02152 4.3564,-0.69799 0.3648,-0.01509 4.9968,1.70726 V 2.02734 L 23.5793,3.7346 23.2145,3.71951 18.8581,3.02152 l -1.8256,5.61852 3.9347,1.99596 0.304,0.2022 3.039,4.3182 -2.3833,3.2803 -5.046,-1.5558 -0.2863,-0.2266 -3.1141,-3.1253 -4.7794,3.4724 2.01,3.9275 0.1271,0.3423 L 10.7586,26.551 6.90237,27.8039 3.7346,23.5793 3.63619,23.2277 2.95383,18.8688 h -5.90766 l -0.68236,4.3589 -0.09841,0.3516 -3.16777,4.2246 -3.85623,-1.2529 -0.0796,-5.2798 0.1271,-0.3423 2.01,-3.9275 -4.7794,-3.4724 -3.1141,3.1253 -0.2863,0.2266 -5.046,1.5558 -2.3833,-3.2803 3.039,-4.3182 0.304,-0.2022 3.9347,-1.99596 -1.8256,-5.61852 -4.3564,0.69799 -0.3648,0.01509 -4.9968,-1.70726 v -4.05468 l 4.9968,-1.70726 0.3648,0.01509 4.3564,0.69799 1.8256,-5.61852 -3.9347,-1.99596 -0.304,-0.2022 -3.039,-4.3182 2.3833,-3.2803 5.046,1.5558 0.2863,0.2266 3.1141,3.1253 4.7794,-3.4724 -2.01,-3.9275 -0.1271,-0.3423 0.0796,-5.2798 3.85623,-1.2529 3.16777,4.2246 0.09841,0.3516 0.68236,4.3589 h 5.90766 l 0.68236,-4.3589 0.09841,-0.3516 3.16777,-4.2246 3.85623,1.2529 0.0796,5.2798 -0.1271,0.3423 -2.01,3.9275 4.7794,3.4724 3.1141,-3.1253 0.2863,-0.2266 5.046,-1.5558 2.3833,3.2803 -3.039,4.3182 -0.304,0.2022 -3.9347,1.99596 z"
         id="path24267" />
      <circle
         style="fill:#2b3f59;fill-opacity:1;stroke:none;stroke-width:4.45085"
         id="path24269"
         cy="0"
         cx="0"
         r="8.0244923" />
    </g>
    <g
       inkscape:label="Rendered Gears"
       transform="matrix(0.32684933,-0.12097424,0.12121056,0.32621199,59.620033,31.865159)"
       id="g24489"
       style="fill:#597eb4;fill-opacity:1;stroke:none;stroke-width:7.0572">
      <path
         style="fill:#5b85b5;fill-opacity:1;stroke:none;stroke-width:4.50157"
         d="m 9.21946,-2.48808 4.39964,-1.18735 0.2168,-0.03188 5.1842,1.97794 V 1.72937 L 13.8359,3.70731 13.6191,3.67543 9.21946,2.48808 6.76448,6.74025 9.99256,9.95677 10.1286,10.1286 11.0077,15.6072 8.01239,17.3366 3.70731,13.8359 3.62654,13.6322 2.45499,9.22833 h -4.90998 l -1.17155,4.40387 -0.08077,0.2037 -4.30508,3.5007 -2.99531,-1.7294 0.8791,-5.4786 0.13604,-0.17183 3.22808,-3.21652 -2.45498,-4.25217 -4.39964,1.18735 -0.2168,0.03188 -5.1842,-1.97794 v -3.45874 l 5.1842,-1.97794 0.2168,0.03188 4.39964,1.18735 2.45498,-4.25217 -3.22808,-3.21652 -0.13604,-0.17183 -0.8791,-5.4786 2.99531,-1.7294 4.30508,3.5007 0.08077,0.2037 1.17155,4.40387 h 4.90998 l 1.17155,-4.40387 0.08077,-0.2037 4.30508,-3.5007 2.99531,1.7294 -0.8791,5.4786 -0.13604,0.17183 -3.22808,3.21652 z"
         id="path24485" />
      <circle
         style="fill:#2b3f59;fill-opacity:1;stroke:none;stroke-width:4.50157"
         id="path24487"
         cx="0"
         cy="0"
         r="5.5019836" />
    </g>
  </g>
</svg>
